<svg width="14" height="14" viewBox="0 0 14 14" fill="none" xmlns="http://www.w3.org/2000/svg">
<path d="M9.33333 10.5H4.66667V9.91667H9.33333V10.5ZM8.16667 11.0833H4.66667V11.6667H8.16667V11.0833ZM14 2.91667V10.5H11.6667V14H2.33333V10.5H0V2.91667H2.33333V0H11.6667V2.91667H14ZM3.5 2.91667H10.5V1.16667H3.5V2.91667ZM10.5 8.75H3.5V12.8333H10.5V8.75ZM12.8333 4.08333H1.16667V9.33333H2.33333V7.58333H11.6667V9.33333H12.8333V4.08333ZM11.9583 4.66667C11.7973 4.66667 11.6667 4.79733 11.6667 4.95833C11.6667 5.11933 11.7973 5.25 11.9583 5.25C12.1193 5.25 12.25 5.11933 12.25 4.95833C12.25 4.79733 12.1193 4.66667 11.9583 4.66667Z" fill="white"/>
</svg>
